<svg xmlns="http://www.w3.org/2000/svg" width="394" height="345" viewBox="0 0 394 345" version="1.1"><path d="M 98.500 67.633 C 84.709 69.760, 70.824 76.884, 61 86.874 C 46.935 101.176, 42.284 117.422, 46.507 137.500 C 50.813 157.972, 64.259 171.174, 94.926 185.043 C 125.929 199.064, 130.398 202.102, 133.937 211.562 C 138.103 222.695, 135.941 236.854, 128.910 244.482 C 122.905 250.996, 116.537 253.384, 105 253.448 C 93.268 253.512, 84.210 250.734, 64.445 241.009 L 51.089 234.437 44.595 248.395 C 41.023 256.073, 38.283 262.648, 38.505 263.008 C 39.494 264.608, 58.458 273.208, 68 276.384 C 92.639 284.585, 116.257 285.151, 135.304 277.996 C 149.357 272.717, 163.753 259.629, 169.949 246.500 C 177.912 229.625, 178.136 208.163, 170.508 193.016 C 164.094 180.280, 154.343 171.834, 136.220 163.317 C 104.107 148.225, 101.895 146.997, 95.463 140.676 C 88.312 133.649, 86 128.024, 86 117.656 C 86 107.044, 92.001 100.264, 104.287 96.993 C 114.821 94.190, 133.132 98.005, 150.064 106.532 C 153.992 108.510, 157.466 109.867, 157.786 109.548 C 158.105 109.228, 161.600 103.238, 165.553 96.237 C 172.529 83.880, 172.682 83.465, 170.741 82.106 C 166.688 79.267, 152.176 73.760, 141 70.821 C 131.372 68.288, 127.221 67.745, 115.500 67.483 C 107.800 67.311, 100.150 67.378, 98.500 67.633 M 185.461 71.750 C 187.135 76.088, 246.120 234.113, 254.325 256.244 L 263.500 280.987 278.163 280.994 L 292.825 281 295.377 274.250 C 296.780 270.538, 314.104 224.300, 333.875 171.500 C 353.646 118.700, 370.304 74.253, 370.894 72.728 L 371.967 69.957 352.828 70.228 L 333.689 70.500 331.947 75.500 C 330.988 78.250, 324.035 97.825, 316.495 119 C 300.325 164.409, 294.050 182.786, 285.933 208.500 C 282.634 218.950, 279.690 228.175, 279.391 229 C 279.091 229.825, 271.761 209.125, 263.100 183 C 254.440 156.875, 242.226 120.763, 235.959 102.750 L 224.565 70 204.675 70 C 186.143 70, 184.832 70.119, 185.461 71.750" stroke="none" fill="#a334db" fill-rule="evenodd"/><path d="M 0 172.502 L 0 345.005 197.250 344.752 L 394.500 344.500 394.753 172.250 L 395.006 0 197.503 0 L 0 0 0 172.502 M 0.489 173 C 0.489 267.875, 0.606 306.688, 0.750 259.250 C 0.894 211.813, 0.894 134.188, 0.750 86.750 C 0.606 39.313, 0.489 78.125, 0.489 173 M 98.500 67.633 C 84.709 69.760, 70.824 76.884, 61 86.874 C 46.935 101.176, 42.284 117.422, 46.507 137.500 C 50.813 157.972, 64.259 171.174, 94.926 185.043 C 125.929 199.064, 130.398 202.102, 133.937 211.562 C 138.103 222.695, 135.941 236.854, 128.910 244.482 C 122.905 250.996, 116.537 253.384, 105 253.448 C 93.268 253.512, 84.210 250.734, 64.445 241.009 L 51.089 234.437 44.595 248.395 C 41.023 256.073, 38.283 262.648, 38.505 263.008 C 39.494 264.608, 58.458 273.208, 68 276.384 C 92.639 284.585, 116.257 285.151, 135.304 277.996 C 149.357 272.717, 163.753 259.629, 169.949 246.500 C 177.912 229.625, 178.136 208.163, 170.508 193.016 C 164.094 180.280, 154.343 171.834, 136.220 163.317 C 104.107 148.225, 101.895 146.997, 95.463 140.676 C 88.312 133.649, 86 128.024, 86 117.656 C 86 107.044, 92.001 100.264, 104.287 96.993 C 114.821 94.190, 133.132 98.005, 150.064 106.532 C 153.992 108.510, 157.466 109.867, 157.786 109.548 C 158.105 109.228, 161.600 103.238, 165.553 96.237 C 172.529 83.880, 172.682 83.465, 170.741 82.106 C 166.688 79.267, 152.176 73.760, 141 70.821 C 131.372 68.288, 127.221 67.745, 115.500 67.483 C 107.800 67.311, 100.150 67.378, 98.500 67.633 M 185.461 71.750 C 187.135 76.088, 246.120 234.113, 254.325 256.244 L 263.500 280.987 278.163 280.994 L 292.825 281 295.377 274.250 C 296.780 270.538, 314.104 224.300, 333.875 171.500 C 353.646 118.700, 370.304 74.253, 370.894 72.728 L 371.967 69.957 352.828 70.228 L 333.689 70.500 331.947 75.500 C 330.988 78.250, 324.035 97.825, 316.495 119 C 300.325 164.409, 294.050 182.786, 285.933 208.500 C 282.634 218.950, 279.690 228.175, 279.391 229 C 279.091 229.825, 271.761 209.125, 263.100 183 C 254.440 156.875, 242.226 120.763, 235.959 102.750 L 224.565 70 204.675 70 C 186.143 70, 184.832 70.119, 185.461 71.750" stroke="none" fill="#341c5c" fill-rule="evenodd"/></svg>